<?xml version="1.0" encoding="utf-8"?>
<svg width="25px" height="13px" viewbox="0 0 25 13" version="1.1" xmlns:xlink="http://www.w3.org/1999/xlink" xmlns="http://www.w3.org/2000/svg">
  <path d="M24.8303 2.7801L24.7982 2.6247C24.4571 0.99891 23.0616 0 21.1343 0L16.9986 0.000293039L3.79931 0.000439059C1.87203 0.000439059 0.462951 1.01048 0.1218 2.63627L0.0897155 2.79167C0.0286369 3.14613 -0.00182843 3.49926 8.48436e-05 3.93002L8.48436e-05 8.48034C0.00243918 9.04599 0.0601323 9.4501 0.0607214 9.4541L0.0630767 9.4712C0.290318 11.3427 1.68688 12.46 3.79931 12.46L15.6091 12.46L15.6466 12.46L16.3294 12.46C16.3298 12.46 16.3301 12.4597 16.3304 12.4597C16.3305 12.4597 16.3308 12.4599 16.331 12.4599C16.4403 12.4599 16.5289 12.3717 16.5289 12.263C16.5289 12.2629 16.5288 12.2627 16.5288 12.2626C16.5288 12.2622 16.5291 12.2617 16.5291 12.2611L16.5291 4.89378C16.5291 4.89319 16.5288 4.89275 16.5288 4.89216C16.5288 4.89202 16.5289 4.89202 16.5289 4.89187C16.5289 4.7832 16.4403 4.69488 16.331 4.69488C16.3307 4.69488 16.3304 4.69517 16.3301 4.69517C16.3298 4.69517 16.3297 4.69503 16.3294 4.69503L15.6091 4.69503C15.6088 4.69503 15.6086 4.69517 15.6084 4.69517C15.6079 4.69517 15.6073 4.69488 15.6069 4.69488C15.4975 4.69488 15.409 4.78305 15.409 4.89173C15.409 4.89231 15.4092 4.89275 15.4092 4.89334C15.4092 4.89348 15.4092 4.89363 15.4092 4.89378L15.4092 11.3512L4.07909 11.3512C2.20289 11.3512 1.12584 10.2119 1.12451 8.51973L1.12569 3.91947C1.12569 2.21268 2.202 1.11272 4.07909 1.11272L13.5002 1.11262L19.0388 1.11257L20.8555 1.11272C22.7326 1.11272 23.7964 2.20111 23.7964 3.90805L23.7976 8.50802C23.7961 10.2003 22.7305 11.3453 20.8544 11.3453L20.4705 11.3506C20.3116 11.3516 20.1731 11.3525 20.0127 11.3532C20.0127 11.3532 19.7978 11.3531 19.7973 11.3531C19.6881 11.3531 19.5995 11.4412 19.5995 11.5499C19.5995 11.5506 19.5991 11.5512 19.5991 11.5519L19.5991 12.2585C19.5991 12.2586 19.5992 12.2588 19.5992 12.2589C19.5992 12.2595 19.5989 12.2598 19.5989 12.2603C19.5989 12.3689 19.6875 12.4571 19.7969 12.4571C19.797 12.4571 19.9406 12.4572 19.9406 12.4572L20.2998 12.4563C20.3675 12.4558 20.4355 12.4552 20.503 12.4541L21.1343 12.4541C23.2467 12.4541 24.6297 11.3311 24.8569 9.4596L24.8593 9.44249C24.8599 9.43849 24.9176 9.03442 24.9199 8.46876L24.9199 3.91845C24.9218 3.48768 24.8914 3.13456 24.8303 2.7801Z" id="Path" fill="#FFFFFF" fill-rule="evenodd" stroke="none" />
</svg>